<svg enable-background="new 0 0 100 100" style="fill:#F8981C;" version="1.1" viewBox="0 0 100 125" x="0px"
  xml:space="preserve" xmlns:xlink="http://www.w3.org/1999/xlink" xmlns="http://www.w3.org/2000/svg"
  y="0px"><path
  d="M50,1.6C23.1,1.6,1.2,23.4,1.2,50.4S23.1,99.1,50,99.1s48.8-21.8,48.8-48.8S76.9,1.6,50,1.6z
  M54.5,61.4H36.8v19.9
  c0,1.2-1,2.2-2.2,2.2s-2.2-1-2.2-2.2v-62c0-0.6,0.3-1.2,0.6-1.6c0.4-0.4,1-0.6,1.6-0.6h19.9c12.2,0,22.1,9.9,22.1,22.1
  C76.6,51.5,66.7,61.4,54.5,61.4z"/><path d="M54.5,21.6H36.8V57h17.7c9.7,0,17.7-8,17.7-17.7S64.2,21.6,54.5,21.6z"/>
</svg>
